<?xml version="1.0" encoding="UTF-8"?>
<svg version="1.1" xmlns="http://www.w3.org/2000/svg" width="150" height="158">
  <path
    d="M0 0 C-0.144375 0.71285156 -0.28875 1.42570312 -0.4375 2.16015625 C-1.93068914 9.86459743 -2.96541774 15.80490865 0 23.25 C2.24477989 28.94889542 2.42189529 33.94111489 2 40 C8.15796193 38.79255648 10.37322059 37.12015917 14 32 C14.33 31.34 14.66 30.68 15 30 C15.66 30 16.32 30 17 30 C17.33 30.99 17.66 31.98 18 33 C23.05009595 33.93786082 23.05009595 33.93786082 28 33 C28.33 32.01 28.66 31.02 29 30 C29.66 30 30.32 30 31 30 C34 34.38461538 34 34.38461538 34 37 C36.97 37.99 39.94 38.98 43 40 C43.03738281 39.2265625 43.07476562 38.453125 43.11328125 37.65625 C43.71561083 28.11345973 43.71561083 28.11345973 45.5625 24.0625 C48.68754337 16.77581352 47.41968172 7.63078926 46 0 C50.866909 0.45273572 53.4419325 1.64525064 57 5 C58.62484165 8.24968331 58.34043966 11.85921167 58.5 15.4375 C58.70132605 21.30264963 58.70132605 21.30264963 60 27 C59.030625 27.61875 58.06125 28.2375 57.0625 28.875 C54.15008733 31.29856799 53.45062868 33.13307068 53 36.875 C52.82941914 41.28385923 53.20120771 44.91183569 55 49 C57.47343931 51.43177033 57.47343931 51.43177033 60 53 C59.50769231 58.53846154 59.50769231 58.53846154 56.9375 60.875 C56.298125 61.24625 55.65875 61.6175 55 62 C55.2475 62.556875 55.495 63.11375 55.75 63.6875 C56 66 56 66 54.1875 68.6875 C51.4761135 71.55382287 50.75132321 71.94107269 46.8125 72.25 C42.43903826 71.96321562 39.89758122 70.90901938 36 69 C39.29549466 70.72264494 42.33118845 72.29445932 46 73 C45 76 45 76 42.70703125 77.203125 C32.84142424 80.77125277 32.84142424 80.77125277 28 79 C25.625 77.4375 25.625 77.4375 24 76 C23.484375 76.28875 22.96875 76.5775 22.4375 76.875 C16.84966951 79.45399869 12.75749233 80.48329049 6.8671875 78.70703125 C4.33477177 77.74810396 2.16694108 76.62520581 0 75 C0 74.34 0 73.68 0 73 C0.62648438 72.81824219 1.25296875 72.63648437 1.8984375 72.44921875 C2.71570313 72.19785156 3.53296875 71.94648437 4.375 71.6875 C5.18710938 71.44386719 5.99921875 71.20023437 6.8359375 70.94921875 C9.33184629 70.08631815 9.33184629 70.08631815 11 67 C10.236875 67.639375 9.47375 68.27875 8.6875 68.9375 C4.49732582 72.15321506 1.19439869 72.44779299 -4 72 C-7.97248797 69.61650722 -9.65216226 67.41110531 -11 63 C-10.01 62.505 -10.01 62.505 -9 62 C-9.825 61.2575 -10.65 60.515 -11.5 59.75 C-14 57 -14 57 -14 53 C-12.33333333 51.33333333 -10.66666667 49.66666667 -9 48 C-6.3922622 42.90305794 -6.39790685 37.43987561 -8 32 C-9.83390613 29.7190475 -11.4925069 28.60052751 -14 27 C-13.84144531 26.50371094 -13.68289062 26.00742188 -13.51953125 25.49609375 C-12.66193331 21.3757548 -12.71596239 17.13266415 -12.65820312 12.93164062 C-12.4601779 8.01785186 -11.47728405 5.47076006 -8 2 C-4.94024557 -0.00796384 -3.85514114 0 0 0 Z M22 40 C21.278125 40.61875 20.55625 41.2375 19.8125 41.875 C17.21618062 43.83666353 15.05328334 44.95316 12 46 C13.54820411 48.13550059 13.54820411 48.13550059 16 50 C19.5035635 50.48324206 19.5035635 50.48324206 23.25 50.25 C24.51328125 50.21390625 25.7765625 50.1778125 27.078125 50.140625 C28.04234375 50.09421875 29.0065625 50.0478125 30 50 C30.33 49.01 30.66 48.02 31 47 C31.99 46.67 32.98 46.34 34 46 C33.46890625 45.73445313 32.9378125 45.46890625 32.390625 45.1953125 C28.92708333 43.46354167 25.46354167 41.73177083 22 40 Z M2 47 C2 47.33 2 47.66 2 48 C5.3 48 8.6 48 12 48 C12 47.67 12 47.34 12 47 C8.7 47 5.4 47 2 47 Z M34 47 C34 47.33 34 47.66 34 48 C37.3 48 40.6 48 44 48 C44 47.67 44 47.34 44 47 C40.7 47 37.4 47 34 47 Z M33 65 C33.33 65.99 33.66 66.98 34 68 C34 67.01 34 66.02 34 65 C33.67 65 33.34 65 33 65 Z "
    fill="#0070BA" transform="translate(85,40)" />
  <path
    d="M0 0 C5.51101893 4.38632119 10.11123465 9.09002227 14 15 C14 15.66 14 16.32 14 17 C12.68 17 11.36 17 10 17 C10.39380859 18.04978027 10.78761719 19.09956055 11.19335938 20.18115234 C12.65026579 24.06745755 14.10288548 27.95535316 15.55419922 31.84375 C16.1835592 33.52810836 16.81408897 35.21203009 17.44580078 36.89550781 C18.35234799 39.31201826 19.25470972 41.73005537 20.15625 44.1484375 C20.44060913 44.9036972 20.72496826 45.65895691 21.01794434 46.43710327 C23 51.77225659 23 51.77225659 23 54 C24.98 53.01 26.96 52.02 29 51 C28.76023437 49.41832031 28.76023437 49.41832031 28.515625 47.8046875 C27.78586624 41.92262489 27.7770631 36.04505328 27.75 30.125 C27.729375 29.00480469 27.70875 27.88460937 27.6875 26.73046875 C27.64782876 18.23090663 28.13091051 9.6512578 34 3 C34.66 3 35.32 3 36 3 C35.9278125 3.75023437 35.855625 4.50046875 35.78125 5.2734375 C35.4874069 8.51387388 35.23292153 11.75462662 35 15 C34.91492187 16.18335938 34.91492187 16.18335938 34.828125 17.390625 C34.51050917 26.47443782 36.17726931 36.24156035 38.54321289 45.01416016 C39.2311939 48.00509417 39.05874312 50.945358 39 54 C37.77493102 54.65357278 36.54470484 55.29748233 35.3125 55.9375 C34.28576172 56.47697266 34.28576172 56.47697266 33.23828125 57.02734375 C30.83499121 58.07170539 28.56884248 58.52194604 26 59 C29.31303614 75.00319683 29.31303614 75.00319683 38.34277344 87.72119141 C43.76320617 89.98328593 49.40308865 90.47339411 55.22412109 90.80664062 C58.58959934 91.04106972 61.79829031 91.65144756 65.10058594 92.31567383 C82.08803361 95.65128855 99.28603158 96.56271438 115.59765625 89.90234375 C118.0534231 88.97993376 120.41905715 88.44625928 123 88 C119.92377569 95.41912921 115.10087666 100.27853299 108 103.9375 C91.15334759 110.22107172 71.42906632 105.25281356 54.50537109 101.72314453 C48.53820699 100.4921416 42.55102724 99.37149841 36.5625 98.25 C34.93876465 97.93446167 34.93876465 97.93446167 33.28222656 97.61254883 C26.20042288 96.27196273 19.19213369 95.45411198 12 95 C11.22986572 94.95037109 10.45973145 94.90074219 9.66625977 94.84960938 C-0.26858098 94.33318499 -11.59001083 96.69021794 -20.3984375 101.23046875 C-22 102 -22 102 -24 102 C-22.54935721 95.39151617 -18.59650904 91.49822026 -13.18359375 87.73828125 C-1.46166381 81.15540201 12.17819891 83.13366209 25 84 C22.69 77.4 20.38 70.8 18 64 C14.90124328 64 12.75578485 64.58261252 9.8125 65.5 C8.91144531 65.7784375 8.01039062 66.056875 7.08203125 66.34375 C6.39496094 66.5603125 5.70789063 66.776875 5 67 C0.75594894 63.20230604 -1.42045215 59.58786926 -3.75 54.4375 C-8.48590198 44.53164744 -13.93877361 35.13665231 -23.56640625 29.28125 C-24.03949219 28.8584375 -24.51257813 28.435625 -25 28 C-25 26.68 -25 25.36 -25 24 C-14.57026887 25.36937117 -6.12203853 35.07482137 0 43 C9 55.70383275 9 55.70383275 9 59 C11.31 58.34 13.62 57.68 16 57 C15.63648438 55.95545654 15.27296875 54.91091309 14.8984375 53.8347168 C13.55197816 49.96181186 12.21159574 46.08682695 10.87304688 42.21118164 C10.29267483 40.5335234 9.71065251 38.85643512 9.12695312 37.17993164 C8.28862776 34.77117193 7.45624306 32.36043022 6.625 29.94921875 C6.36251465 29.19912033 6.1000293 28.44902191 5.82958984 27.67619324 C4.79579727 24.66193993 4 22.21044036 4 19 C3.34 19 2.68 19 2 19 C2 19.66 2 20.32 2 21 C1.01 21 0.02 21 -1 21 C-1.02888146 17.68751813 -1.04675799 14.37506833 -1.0625 11.0625 C-1.07087891 10.11697266 -1.07925781 9.17144531 -1.08789062 8.19726562 C-1.09272461 6.84858398 -1.09272461 6.84858398 -1.09765625 5.47265625 C-1.10551147 4.22367554 -1.10551147 4.22367554 -1.11352539 2.94946289 C-1 1 -1 1 0 0 Z "
    fill="#0070BA" transform="translate(26,29)" />
  <path
    d="M0 0 C4.44465351 1.01670248 8.90463651 1.95057289 13.37255859 2.85888672 C14.16919922 3.02195313 14.96583984 3.18501953 15.78662109 3.35302734 C24.10860676 4.99965998 32.49325089 5.8965348 40.93505859 6.67138672 C40.93505859 10.67138672 40.93505859 10.67138672 39.36083984 12.30419922 C29.22896153 19.45831662 20.34668381 20.45527193 8.19287109 18.45654297 C7.30324677 18.32195175 6.41362244 18.18736053 5.49703979 18.0486908 C2.68278883 17.62197464 -0.12862937 17.17952349 -2.93994141 16.73388672 C-25.365063 11.96250039 -25.365063 11.96250039 -46.84619141 16.77685547 C-49.70833698 19.05675084 -52.03943921 21.63313343 -54.06494141 24.67138672 C-58.17303403 24.48031264 -59.79135478 23.92065453 -62.87744141 21.10888672 C-65.66317929 17.34949287 -66.06494141 14.3284624 -66.06494141 9.67138672 C-64.42450646 4.93235242 -62.22597503 2.41388615 -58.06494141 -0.32861328 C-40.23759164 -8.92394263 -18.43673384 -4.23598518 0 0 Z "
    fill="#0070BA" transform="translate(69.06494140625,131.32861328125)" />
  <path
    d="M0 0 C0.99 0 1.98 0 3 0 C4.00446104 3.2903223 5.00280756 6.58246822 6 9.875 C6.28617188 10.81214844 6.57234375 11.74929688 6.8671875 12.71484375 C7.13789062 13.61074219 7.40859375 14.50664062 7.6875 15.4296875 C7.93886719 16.25710449 8.19023438 17.08452148 8.44921875 17.93701172 C9 20 9 20 9 22 C10.32 22 11.64 22 13 22 C13.26554687 20.91460938 13.53109375 19.82921875 13.8046875 18.7109375 C14.16133082 17.26559353 14.5181088 15.82028278 14.875 14.375 C15.04902344 13.66214844 15.22304687 12.94929687 15.40234375 12.21484375 C16.42854338 8.07203784 17.58790729 4.03273322 19 0 C19.99 0 20.98 0 22 0 C22.50509639 3.08252089 23.00317999 6.16613525 23.5 9.25 C23.64308594 10.12269531 23.78617188 10.99539063 23.93359375 11.89453125 C24.13662109 13.16103516 24.13662109 13.16103516 24.34375 14.453125 C24.46943359 15.22817383 24.59511719 16.00322266 24.72460938 16.80175781 C25 19 25 19 25 23 C26.65 23.33 28.3 23.66 30 24 C30.24492188 23.19304688 30.48984375 22.38609375 30.7421875 21.5546875 C32.26131237 17.26150851 34.15727098 13.22733258 36.125 9.125 C36.49753906 8.34125 36.87007812 7.5575 37.25390625 6.75 C38.16618997 4.83186501 39.08266984 2.91572671 40 1 C40.99 1 41.98 1 43 1 C42.73655334 5.1261806 42.46990815 9.25213903 42.20043945 13.37792969 C42.10941444 14.77826495 42.01922738 16.17865497 41.92993164 17.57910156 C41.01582809 31.898355 41.01582809 31.898355 40 39 C39.17145508 38.81824219 39.17145508 38.81824219 38.32617188 38.6328125 C20.36502689 34.76380032 5.01898862 34.03458973 -13 38 C-14.66615747 38.33586929 -16.33273336 38.6696807 -18 39 C-18.42950111 34.23131924 -18.85668493 29.46243865 -19.28173828 24.69335938 C-19.42661145 23.07155777 -19.5721137 21.44981222 -19.71826172 19.828125 C-19.9284202 17.49493694 -20.13630328 15.16155553 -20.34375 12.828125 C-20.44218201 11.74352997 -20.44218201 11.74352997 -20.54260254 10.63702393 C-20.82812538 7.4025346 -21 4.25121437 -21 1 C-18 2 -18 2 -16.74145508 4.04125977 C-16.33822021 4.91580811 -15.93498535 5.79035645 -15.51953125 6.69140625 C-15.07802734 7.63564453 -14.63652344 8.57988281 -14.18164062 9.55273438 C-13.72982422 10.54595703 -13.27800781 11.53917969 -12.8125 12.5625 C-12.34908203 13.55958984 -11.88566406 14.55667969 -11.40820312 15.58398438 C-10.26282268 18.05186594 -9.12726773 20.52380545 -8 23 C-6.35 23 -4.7 23 -3 23 C-2.95101562 22.34515625 -2.90203125 21.6903125 -2.8515625 21.015625 C-2.27133394 13.932835 -1.25700294 6.9928416 0 0 Z "
    fill="#0070BA" transform="translate(97,1)" />
  <path
    d="M0 0 C0.66 0.556875 1.32 1.11375 2 1.6875 C2 2.6775 2 3.6675 2 4.6875 C1.34 4.5225 0.68 4.3575 0 4.1875 C-3.82039611 3.55076732 -7.12224128 3.43322074 -11 3.6875 C-11.99 5.1725 -11.99 5.1725 -13 6.6875 C-12.505 6.336875 -12.01 5.98625 -11.5 5.625 C-7.91202951 4.27951106 -4.68023494 4.75043813 -1 5.6875 C-0.01 6.3475 0.98 7.0075 2 7.6875 C1.67 9.0075 1.34 10.3275 1 11.6875 C0.34 11.3575 -0.32 11.0275 -1 10.6875 C-1.391875 11.3475 -1.78375 12.0075 -2.1875 12.6875 C-4 14.6875 -4 14.6875 -6.6875 14.9375 C-7.450625 14.855 -8.21375 14.7725 -9 14.6875 C-9.66 13.3675 -10.32 12.0475 -11 10.6875 C-12.32 11.0175 -13.64 11.3475 -15 11.6875 C-15 13.0075 -15 14.3275 -15 15.6875 C-15.99 15.3575 -16.98 15.0275 -18 14.6875 C-18.57563851 4.90164538 -18.57563851 4.90164538 -15 0.6875 C-10.63674426 -2.70614335 -4.77572114 -2.089378 0 0 Z M-15 7.6875 C-14 9.6875 -14 9.6875 -14 9.6875 Z "
    fill="#0070BA" transform="translate(129,44.3125)" />
  <path
    d="M0 0 C2.28854153 1.88468126 3.03649899 3.02874747 4.125 5.75 C4.3203125 8.109375 4.3203125 8.109375 4.25 10.5 C4.23195313 11.29921875 4.21390625 12.0984375 4.1953125 12.921875 C4.17210938 13.52515625 4.14890625 14.1284375 4.125 14.75 C3.135 15.08 2.145 15.41 1.125 15.75 C1.125 14.43 1.125 13.11 1.125 11.75 C-1.74224686 12.32344937 -2.7364515 12.6114515 -4.875 14.75 C-7.3125 15.125 -7.3125 15.125 -9.875 14.75 C-11.6875 12.75 -11.6875 12.75 -12.875 10.75 C-13.865 11.08 -14.855 11.41 -15.875 11.75 C-15.6875 9.375 -15.6875 9.375 -14.875 6.75 C-11.78102856 4.74801848 -9.93869765 4.74560706 -6.25 5 C-2.875 5.75 -2.875 5.75 0.125 7.75 C-0.75144433 5.57271927 -0.75144433 5.57271927 -2.875 3.75 C-7.32783897 3.10062765 -11.56052447 3.54116061 -15.875 4.75 C-15.54512361 2.27592708 -15.29527913 1.0862233 -13.3125 -0.5 C-8.58065225 -1.95595315 -4.48028124 -1.94794836 0 0 Z "
    fill="#0070BA" transform="translate(100.875,44.25)" />
  <path
    d="M0 0 C1.051875 -0.00386719 1.051875 -0.00386719 2.125 -0.0078125 C4 0.125 4 0.125 6 1.125 C6 1.785 6 2.445 6 3.125 C2.04 3.125 -1.92 3.125 -6 3.125 C-6 2.465 -6 1.805 -6 1.125 C-3.75487738 0.00243869 -2.48543351 -0.00913762 0 0 Z "
    fill="#FEFEFE" transform="translate(108,84.875)" />
  <style>
    @media (prefers-color-scheme: dark) {
      path {
        fill: #fff;
      }
    }
  </style>
</svg>